<svg preserveAspectRatio="none" width="100%" height="100%" overflow="visible" style="display: block;" viewBox="0 0 16 16" fill="none" xmlns="http://www.w3.org/2000/svg">
<g id="Like">
<path id="Vector" d="M7.99998 13.9999L7.03331 13.1333C5.91109 12.1222 4.98331 11.2499 4.24998 10.5166C3.51665 9.78327 2.93331 9.12482 2.49998 8.54127C2.06665 7.95816 1.76398 7.42216 1.59198 6.93327C1.41954 6.44438 1.33331 5.94438 1.33331 5.43327C1.33331 4.38882 1.68331 3.5166 2.38331 2.8166C3.08331 2.1166 3.95554 1.7666 4.99998 1.7666C5.57776 1.7666 6.12776 1.88882 6.64998 2.13327C7.1722 2.37771 7.6222 2.72216 7.99998 3.1666C8.37776 2.72216 8.82776 2.37771 9.34998 2.13327C9.8722 1.88882 10.4222 1.7666 11 1.7666C12.0444 1.7666 12.9166 2.1166 13.6166 2.8166C14.3166 3.5166 14.6666 4.38882 14.6666 5.43327C14.6666 5.94438 14.5806 6.44438 14.4086 6.93327C14.2362 7.42216 13.9333 7.95816 13.5 8.54127C13.0666 9.12482 12.4833 9.78327 11.75 10.5166C11.0166 11.2499 10.0889 12.1222 8.96665 13.1333L7.99998 13.9999Z" fill="var(--fill-0, #E84118)"/>
</g>
</svg>
