<svg preserveAspectRatio="none" width="100%" height="100%" overflow="visible" style="display: block;" viewBox="0 0 16 16" fill="none" xmlns="http://www.w3.org/2000/svg">
<g id="Unlike">
<path id="Vector" d="M8 14L7.03333 13.1333C5.91111 12.1222 4.98333 11.25 4.25 10.5167C3.51667 9.78333 2.93333 9.12489 2.5 8.54133C2.06667 7.95822 1.764 7.42222 1.592 6.93333C1.41956 6.44444 1.33333 5.94444 1.33333 5.43333C1.33333 4.38889 1.68333 3.51667 2.38333 2.81667C3.08333 2.11667 3.95556 1.76667 5 1.76667C5.57778 1.76667 6.12778 1.88889 6.65 2.13333C7.17222 2.37778 7.62222 2.72222 8 3.16667C8.37778 2.72222 8.82778 2.37778 9.35 2.13333C9.87222 1.88889 10.4222 1.76667 11 1.76667C12.0444 1.76667 12.9167 2.11667 13.6167 2.81667C14.3167 3.51667 14.6667 4.38889 14.6667 5.43333C14.6667 5.94444 14.5807 6.44444 14.4087 6.93333C14.2362 7.42222 13.9333 7.95822 13.5 8.54133C13.0667 9.12489 12.4833 9.78333 11.75 10.5167C11.0167 11.25 10.0889 12.1222 8.96667 13.1333L8 14ZM8 12.2C9.06667 11.2444 9.94444 10.4249 10.6333 9.74133C11.3222 9.05822 11.8667 8.464 12.2667 7.95867C12.6667 7.45289 12.9444 7.00267 13.1 6.608C13.2556 6.21378 13.3333 5.82222 13.3333 5.43333C13.3333 4.76667 13.1111 4.21111 12.6667 3.76667C12.2222 3.32222 11.6667 3.1 11 3.1C10.4778 3.1 9.99444 3.24711 9.55 3.54133C9.10555 3.836 8.8 4.21111 8.63333 4.66667H7.36667C7.2 4.21111 6.89444 3.836 6.45 3.54133C6.00556 3.24711 5.52222 3.1 5 3.1C4.33333 3.1 3.77778 3.32222 3.33333 3.76667C2.88889 4.21111 2.66667 4.76667 2.66667 5.43333C2.66667 5.82222 2.74444 6.21378 2.9 6.608C3.05556 7.00267 3.33333 7.45289 3.73333 7.95867C4.13333 8.464 4.67778 9.05822 5.36667 9.74133C6.05556 10.4249 6.93333 11.2444 8 12.2Z" fill="var(--fill-0, white)"/>
</g>
</svg>
